<svg xmlns="http://www.w3.org/2000/svg" width="30" height="24" viewBox="0 0 30 24">
  <path id="Icon_awesome-school" data-name="Icon awesome-school" d="M0,10.5V23.25A.75.75,0,0,0,.75,24H4.5V9h-3A1.5,1.5,0,0,0,0,10.5ZM16.875,8.25H15.75V6.375A.375.375,0,0,0,15.375,6h-.75a.375.375,0,0,0-.375.375v3a.375.375,0,0,0,.375.375h2.25a.375.375,0,0,0,.375-.375v-.75A.375.375,0,0,0,16.875,8.25Zm6.457-3-7.5-5a1.5,1.5,0,0,0-1.664,0l-7.5,5A1.5,1.5,0,0,0,6,6.5V24h6V17.25a.75.75,0,0,1,.75-.75h4.5a.75.75,0,0,1,.75.75V24h6V6.5a1.5,1.5,0,0,0-.668-1.248ZM15,12a3.75,3.75,0,1,1,3.75-3.75A3.75,3.75,0,0,1,15,12ZM28.5,9h-3V24h3.75a.75.75,0,0,0,.75-.75V10.5A1.5,1.5,0,0,0,28.5,9Z" fill="#0e58d6"/>
</svg>
