<svg id="구성_요소_9_1" data-name="구성 요소 9 – 1" xmlns="http://www.w3.org/2000/svg" width="34.458" height="34.458" viewBox="0 0 34.458 34.458">
  <path id="패스_3267" data-name="패스 3267" d="M28.177,13.8l-1.458-1.5a.313.313,0,0,0-.232-.1h0a.3.3,0,0,0-.232.1L16.15,22.486l-3.678-3.678a.32.32,0,0,0-.464,0l-1.474,1.474a.33.33,0,0,0,0,.472l4.639,4.639a1.467,1.467,0,0,0,.969.472,1.537,1.537,0,0,0,.961-.456h.008L28.185,14.277A.354.354,0,0,0,28.177,13.8Z" transform="translate(-2.118 -1.802)" fill="#0e58d6"/>
  <path id="패스_3268" data-name="패스 3268" d="M20.6,5.694A14.9,14.9,0,1,1,10.06,10.06,14.811,14.811,0,0,1,20.6,5.694m0-2.319A17.229,17.229,0,1,0,37.833,20.6,17.226,17.226,0,0,0,20.6,3.375Z" transform="translate(-3.375 -3.375)" fill="#0e58d6"/>
</svg>
