<svg xmlns="http://www.w3.org/2000/svg" xmlns:xlink="http://www.w3.org/1999/xlink" width="179.973" height="139.23" viewBox="0 0 179.973 139.23">
  <defs>
    <clipPath id="clip-path">
      <rect id="사각형_1052" data-name="사각형 1052" width="179.973" height="139.23" transform="translate(0 0)" fill="none"/>
    </clipPath>
  </defs>
  <g id="그룹_1571" data-name="그룹 1571" transform="translate(0 -0.003)">
    <g id="그룹_1570" data-name="그룹 1570" transform="translate(0 0.003)" clip-path="url(#clip-path)">
      <path id="패스_3274" data-name="패스 3274" d="M88.229,232.013v7.147a1.455,1.455,0,0,1-1.455,1.455H34.694a1.455,1.455,0,0,1-1.455-1.455v-7.147a1.455,1.455,0,0,1,1.455-1.455H54.17a1.091,1.091,0,0,0,1.091-1.091v-6.6a1.091,1.091,0,0,0-1.091-1.091H38.958a2.728,2.728,0,0,1-2.728-2.728V202.36a12.917,12.917,0,0,1,12.917-12.917H82.511a2.728,2.728,0,0,1,2.728,2.728v26.877a2.728,2.728,0,0,1-2.728,2.728H67.3a1.091,1.091,0,0,0-1.091,1.091v6.6a1.091,1.091,0,0,0,1.091,1.091H86.775a1.455,1.455,0,0,1,1.455,1.455m-39.852-20.23H73.091a1.455,1.455,0,0,0,1.455-1.455V199.963a.464.464,0,0,0-.464-.464h-25.7a1.455,1.455,0,0,0-1.455,1.455v9.374a1.455,1.455,0,0,0,1.455,1.455" transform="translate(-29.506 -168.169)" fill="#0e58d6"/>
      <path id="패스_3275" data-name="패스 3275" d="M88.229,232.013v7.147a1.455,1.455,0,0,1-1.455,1.455H34.694a1.455,1.455,0,0,1-1.455-1.455v-7.147a1.455,1.455,0,0,1,1.455-1.455H54.17a1.091,1.091,0,0,0,1.091-1.091v-6.6a1.091,1.091,0,0,0-1.091-1.091H38.958a2.728,2.728,0,0,1-2.728-2.728V202.36a12.917,12.917,0,0,1,12.917-12.917H82.511a2.728,2.728,0,0,1,2.728,2.728v26.877a2.728,2.728,0,0,1-2.728,2.728H67.3a1.091,1.091,0,0,0-1.091,1.091v6.6a1.091,1.091,0,0,0,1.091,1.091H86.775A1.455,1.455,0,0,1,88.229,232.013Zm-39.852-20.23H73.091a1.455,1.455,0,0,0,1.455-1.455V199.963a.464.464,0,0,0-.464-.464h-25.7a1.455,1.455,0,0,0-1.455,1.455v9.374A1.455,1.455,0,0,0,48.378,211.783Z" transform="translate(-29.506 -168.169)" fill="none" stroke="#0e58d6" stroke-width="1"/>
      <path id="패스_3276" data-name="패스 3276" d="M636.651,221.446H617.6a1.455,1.455,0,0,0-1.455,1.455v9.629a1.455,1.455,0,0,1-1.455,1.455h-8.165a1.455,1.455,0,0,1-1.455-1.455V222.9a1.455,1.455,0,0,0-1.455-1.455H584.57a1.455,1.455,0,0,1-1.455-1.455v-7.019a1.455,1.455,0,0,1,1.455-1.455h52.081a1.455,1.455,0,0,1,1.455,1.455v7.019a1.455,1.455,0,0,1-1.455,1.455m0-15.053H590.3a1.455,1.455,0,0,1-1.455-1.455V179.844a1.455,1.455,0,0,1,1.455-1.455h45.716a1.455,1.455,0,0,1,1.455,1.455V186.8a1.455,1.455,0,0,1-1.455,1.455H601.245a1.455,1.455,0,0,0-1.455,1.455v5.428a1.455,1.455,0,0,0,1.455,1.455h35.406a1.455,1.455,0,0,1,1.455,1.455v6.892a1.455,1.455,0,0,1-1.455,1.455" transform="translate(-517.633 -158.357)" fill="#0e58d6"/>
      <path id="패스_3277" data-name="패스 3277" d="M636.651,221.446H617.6a1.455,1.455,0,0,0-1.455,1.455v9.629a1.455,1.455,0,0,1-1.455,1.455h-8.165a1.455,1.455,0,0,1-1.455-1.455V222.9a1.455,1.455,0,0,0-1.455-1.455H584.57a1.455,1.455,0,0,1-1.455-1.455v-7.019a1.455,1.455,0,0,1,1.455-1.455h52.081a1.455,1.455,0,0,1,1.455,1.455v7.019A1.455,1.455,0,0,1,636.651,221.446Zm0-15.053H590.3a1.455,1.455,0,0,1-1.455-1.455V179.844a1.455,1.455,0,0,1,1.455-1.455h45.716a1.455,1.455,0,0,1,1.455,1.455V186.8a1.455,1.455,0,0,1-1.455,1.455H601.245a1.455,1.455,0,0,0-1.455,1.455v5.428a1.455,1.455,0,0,0,1.455,1.455h35.406a1.455,1.455,0,0,1,1.455,1.455v6.892A1.455,1.455,0,0,1,636.651,206.393Z" transform="translate(-517.633 -158.357)" fill="none" stroke="#0e58d6" stroke-width="1"/>
      <path id="패스_3278" data-name="패스 3278" d="M1152.643,229.916h-22.859a1.455,1.455,0,0,1-1.455-1.455v-7.147a1.455,1.455,0,0,1,1.455-1.455h23.3a45.082,45.082,0,0,0,12.192-1.47,1.453,1.453,0,0,1,1.874,1.392v6.866a1.448,1.448,0,0,1-.939,1.361c-3.436,1.271-8.636,1.907-13.572,1.907m11.838-33.8c0,10.629-7.256,17.63-17.312,17.63-10.12,0-17.375-7-17.375-17.63s7.256-17.63,17.375-17.63c10.056,0,17.312,7,17.312,17.63m16.548,36.342h-9.3a1.455,1.455,0,0,1-1.455-1.455V179.563a1.455,1.455,0,0,1,1.455-1.455h7.847a1.455,1.455,0,0,1,1.455,1.455Z" transform="translate(-1001.622 -158.107)" fill="#0e58d6"/>
      <path id="패스_3279" data-name="패스 3279" d="M1152.643,229.916h-22.859a1.455,1.455,0,0,1-1.455-1.455v-7.147a1.455,1.455,0,0,1,1.455-1.455h23.3a45.082,45.082,0,0,0,12.192-1.47,1.453,1.453,0,0,1,1.874,1.392v6.866a1.448,1.448,0,0,1-.939,1.361C1162.779,229.28,1157.579,229.916,1152.643,229.916Zm11.838-33.8c0,10.629-7.256,17.63-17.312,17.63-10.12,0-17.375-7-17.375-17.63s7.256-17.63,17.375-17.63C1157.225,178.49,1164.481,185.491,1164.481,196.12Zm16.548,36.342h-9.3a1.455,1.455,0,0,1-1.455-1.455V179.563a1.455,1.455,0,0,1,1.455-1.455h7.847a1.455,1.455,0,0,1,1.455,1.455Z" transform="translate(-1001.622 -158.107)" fill="none" stroke="#0e58d6" stroke-width="1"/>
      <path id="패스_3280" data-name="패스 3280" d="M33.026,791.572l5.77,8.13a1.455,1.455,0,0,1-.35,2.032l-6.381,4.485a1.455,1.455,0,0,1-2.038-.37l-8.556-12.532a1.455,1.455,0,0,0-2.5.167c-4.13,8.14-9.945,12.889-16.881,13.564A1.455,1.455,0,0,1,.5,805.6v-8.344a1.448,1.448,0,0,1,1.072-1.4c7.933-2.1,13.2-16.967,13.49-37.962a1.454,1.454,0,0,1,1.5-1.434l8.043.281a1.457,1.457,0,0,1,1.4,1.472q-.042,3.833-.3,7.41a39.936,39.936,0,0,0,7.313,25.953m23.428-5.954H53a1.455,1.455,0,0,0-1.455,1.455v21.149a1.455,1.455,0,0,1-1.455,1.455H42.243a1.455,1.455,0,0,1-1.455-1.455V756.778a1.455,1.455,0,0,1,1.455-1.455H50.09a1.455,1.455,0,0,1,1.455,1.455v16.948A1.455,1.455,0,0,0,53,775.181h3.455a1.455,1.455,0,0,1,1.455,1.455v7.529a1.455,1.455,0,0,1-1.455,1.455" transform="translate(-0.444 -670.503)" fill="#0e58d6"/>
      <path id="패스_3281" data-name="패스 3281" d="M33.026,791.572l5.77,8.13a1.455,1.455,0,0,1-.35,2.032l-6.381,4.485a1.455,1.455,0,0,1-2.038-.37l-8.556-12.532a1.455,1.455,0,0,0-2.5.167c-4.13,8.14-9.945,12.889-16.881,13.564A1.455,1.455,0,0,1,.5,805.6v-8.344a1.448,1.448,0,0,1,1.072-1.4c7.933-2.1,13.2-16.967,13.49-37.962a1.454,1.454,0,0,1,1.5-1.434l8.043.281a1.457,1.457,0,0,1,1.4,1.472q-.042,3.833-.3,7.41A39.936,39.936,0,0,0,33.026,791.572Zm23.428-5.954H53a1.455,1.455,0,0,0-1.455,1.455v21.149a1.455,1.455,0,0,1-1.455,1.455H42.243a1.455,1.455,0,0,1-1.455-1.455V756.778a1.455,1.455,0,0,1,1.455-1.455H50.09a1.455,1.455,0,0,1,1.455,1.455v16.948A1.455,1.455,0,0,0,53,775.181h3.455a1.455,1.455,0,0,1,1.455,1.455v7.529A1.455,1.455,0,0,1,56.454,785.619Z" transform="translate(-0.444 -670.503)" fill="none" stroke="#0e58d6" stroke-width="1"/>
      <path id="패스_3282" data-name="패스 3282" d="M578.556,785.237v.446a.955.955,0,0,0,.955.955h17.057a.955.955,0,0,1,.955.955V800a.955.955,0,0,1-.955.955H560.416a.955.955,0,0,0,0,1.909H597.14a.955.955,0,0,1,.955.955v4.4a1.455,1.455,0,0,1-1.455,1.455H549.915a.955.955,0,0,1-.955-.955V796.247a.955.955,0,0,1,.955-.955h36.151a.955.955,0,0,0,0-1.909H548.833v-6.746h18.076a.955.955,0,0,0,.955-.955v-.446a.955.955,0,0,0-.955-.955h-20.24a.955.955,0,0,1-.955-.955v-5.419a1.455,1.455,0,0,1,1.455-1.455H599.75a.955.955,0,0,1,.955.955v5.919a.955.955,0,0,1-.955.955H579.51a.955.955,0,0,0-.955.955m17.385-10.82H550.478a1.455,1.455,0,0,1-1.455-1.455V756.778a1.455,1.455,0,0,1,1.455-1.455H595.94a1.455,1.455,0,0,1,1.455,1.455v16.184a1.455,1.455,0,0,1-1.455,1.455m-10.629-11.393h-24.2a1.455,1.455,0,0,0-1.455,1.455v.782a1.455,1.455,0,0,0,1.455,1.455h24.2a1.455,1.455,0,0,0,1.455-1.455v-.782a1.455,1.455,0,0,0-1.455-1.455" transform="translate(-484.432 -670.503)" fill="#0e58d6"/>
      <path id="패스_3283" data-name="패스 3283" d="M578.556,785.237v.446a.955.955,0,0,0,.955.955h17.057a.955.955,0,0,1,.955.955V800a.955.955,0,0,1-.955.955H560.416a.955.955,0,0,0,0,1.909H597.14a.955.955,0,0,1,.955.955v4.4a1.455,1.455,0,0,1-1.455,1.455H549.915a.955.955,0,0,1-.955-.955V796.247a.955.955,0,0,1,.955-.955h36.151a.955.955,0,0,0,0-1.909H548.833v-6.746h18.076a.955.955,0,0,0,.955-.955v-.446a.955.955,0,0,0-.955-.955h-20.24a.955.955,0,0,1-.955-.955v-5.419a1.455,1.455,0,0,1,1.455-1.455H599.75a.955.955,0,0,1,.955.955v5.919a.955.955,0,0,1-.955.955H579.51A.955.955,0,0,0,578.556,785.237Zm17.385-10.82H550.478a1.455,1.455,0,0,1-1.455-1.455V756.778a1.455,1.455,0,0,1,1.455-1.455H595.94a1.455,1.455,0,0,1,1.455,1.455v16.184A1.455,1.455,0,0,1,595.94,774.417Zm-10.629-11.393h-24.2a1.455,1.455,0,0,0-1.455,1.455v.782a1.455,1.455,0,0,0,1.455,1.455h24.2a1.455,1.455,0,0,0,1.455-1.455v-.782A1.455,1.455,0,0,0,585.311,763.024Z" transform="translate(-484.432 -670.503)" fill="none" stroke="#0e58d6" stroke-width="1"/>
      <path id="패스_3284" data-name="패스 3284" d="M1122.111,758.85h-34.26a1.455,1.455,0,0,1-1.454-1.455v-4.983a1.455,1.455,0,0,1,1.454-1.455h10.2a1.455,1.455,0,0,0,1.455-1.455v-1.227a1.455,1.455,0,0,1,1.455-1.455H1109a1.455,1.455,0,0,1,1.455,1.455V749.5a1.455,1.455,0,0,0,1.455,1.455h10.2a1.455,1.455,0,0,1,1.455,1.455V757.4a1.455,1.455,0,0,1-1.455,1.455m-33.678,11.329c0-6.556,7.574-9.992,16.548-9.992s16.548,3.437,16.548,9.992-7.574,9.993-16.548,9.993-16.548-3.437-16.548-9.993m2.983,11.711h45.08a1.455,1.455,0,0,1,1.455,1.455v17.33a1.455,1.455,0,0,1-1.455,1.455h-45.08a1.455,1.455,0,0,1-1.455-1.455v-17.33a1.455,1.455,0,0,1,1.455-1.455m7.137-11.711c0,1.528,2.546,2.546,6.428,2.546s6.428-1.018,6.428-2.546-2.546-2.546-6.428-2.546-6.428,1.018-6.428,2.546m2.037,23.74h26.731v-2.364a1.455,1.455,0,0,0-1.455-1.455h-23.822a1.455,1.455,0,0,0-1.455,1.455Zm42.27-24.949H1139.4a1.455,1.455,0,0,0-1.455,1.455v8.1a1.455,1.455,0,0,1-1.455,1.455h-7.847a1.455,1.455,0,0,1-1.455-1.455v-29.3a1.455,1.455,0,0,1,1.455-1.455h7.847a1.455,1.455,0,0,1,1.455,1.455v8.1a1.455,1.455,0,0,0,1.455,1.455h3.455a1.455,1.455,0,0,1,1.455,1.455v7.274a1.455,1.455,0,0,1-1.455,1.455" transform="translate(-964.397 -662.955)" fill="#0e58d6"/>
      <path id="패스_3285" data-name="패스 3285" d="M1122.111,758.85h-34.26a1.455,1.455,0,0,1-1.454-1.455v-4.983a1.455,1.455,0,0,1,1.454-1.455h10.2a1.455,1.455,0,0,0,1.455-1.455v-1.227a1.455,1.455,0,0,1,1.455-1.455H1109a1.455,1.455,0,0,1,1.455,1.455V749.5a1.455,1.455,0,0,0,1.455,1.455h10.2a1.455,1.455,0,0,1,1.455,1.455V757.4A1.455,1.455,0,0,1,1122.111,758.85Zm-33.678,11.329c0-6.556,7.574-9.992,16.548-9.992s16.548,3.437,16.548,9.992-7.574,9.993-16.548,9.993S1088.432,776.735,1088.432,770.179Zm2.983,11.711h45.08a1.455,1.455,0,0,1,1.455,1.455v17.33a1.455,1.455,0,0,1-1.455,1.455h-45.08a1.455,1.455,0,0,1-1.455-1.455v-17.33A1.455,1.455,0,0,1,1091.415,781.89Zm7.137-11.711c0,1.528,2.546,2.546,6.428,2.546s6.428-1.018,6.428-2.546-2.546-2.546-6.428-2.546S1098.552,768.652,1098.552,770.179Zm2.037,23.74h26.731v-2.364a1.455,1.455,0,0,0-1.455-1.455h-23.822a1.455,1.455,0,0,0-1.455,1.455Zm42.27-24.949H1139.4a1.455,1.455,0,0,0-1.455,1.455v8.1a1.455,1.455,0,0,1-1.455,1.455h-7.847a1.455,1.455,0,0,1-1.455-1.455v-29.3a1.455,1.455,0,0,1,1.455-1.455h7.847a1.455,1.455,0,0,1,1.455,1.455v8.1a1.455,1.455,0,0,0,1.455,1.455h3.455a1.455,1.455,0,0,1,1.455,1.455v7.274A1.455,1.455,0,0,1,1142.859,768.97Z" transform="translate(-964.397 -662.955)" fill="none" stroke="#0e58d6" stroke-width="1"/>
      <path id="패스_3286" data-name="패스 3286" d="M1256.919,257.707a6.412,6.412,0,1,0-10.663,4.8,1.3,1.3,0,0,1,.356,1.417l-1.883,5.2a1.309,1.309,0,0,0,1.231,1.754h9.1a1.309,1.309,0,0,0,1.233-1.747l-1.866-5.245a1.3,1.3,0,0,1,.354-1.406,6.4,6.4,0,0,0,2.134-4.776" transform="translate(-1104.386 -223.075)" fill="#fff"/>
      <path id="패스_3287" data-name="패스 3287" d="M1276.106,5.213A4.783,4.783,0,1,1,1271.323.43a4.783,4.783,0,0,1,4.783,4.783" transform="translate(-1124.311 -0.382)" fill="#0e58d6"/>
      <circle id="타원_266" data-name="타원 266" cx="4.783" cy="4.783" r="4.783" transform="matrix(0.924, -0.383, 0.383, 0.924, 140.763, 2.242)" fill="none" stroke="#0e58d6" stroke-width="0.854"/>
    </g>
  </g>
</svg>
