<svg xmlns="http://www.w3.org/2000/svg" width="26.667" height="26.667" viewBox="0 0 26.667 26.667">
  <path id="Icon_awesome-user-circle" data-name="Icon awesome-user-circle" d="M13.333.563A13.333,13.333,0,1,0,26.667,13.9,13.331,13.331,0,0,0,13.333.563Zm0,5.161A4.731,4.731,0,1,1,8.6,10.455,4.731,4.731,0,0,1,13.333,5.724Zm0,18.495a10.3,10.3,0,0,1-7.876-3.667,5.994,5.994,0,0,1,5.3-3.215,1.316,1.316,0,0,1,.382.059,7.118,7.118,0,0,0,2.2.371,7.091,7.091,0,0,0,2.2-.371,1.316,1.316,0,0,1,.382-.059,5.994,5.994,0,0,1,5.3,3.215A10.3,10.3,0,0,1,13.333,24.218Z" transform="translate(0 -0.563)" fill="#0e58d6"/>
</svg>
