<svg xmlns="http://www.w3.org/2000/svg" width="16.484" height="20.632" viewBox="0 0 16.484 20.632">
  <g id="Icon_ionic-ios-notifications-outline" data-name="Icon ionic-ios-notifications-outline" transform="translate(-6.775 -3.93)">
    <path id="패스_3297" data-name="패스 3297" d="M18.858,28.336a.668.668,0,0,0-.655.526,1.292,1.292,0,0,1-.258.562.975.975,0,0,1-.83.3.991.991,0,0,1-.83-.3,1.292,1.292,0,0,1-.258-.562.668.668,0,0,0-.655-.526h0a.672.672,0,0,0-.655.82,2.3,2.3,0,0,0,2.4,1.913,2.3,2.3,0,0,0,2.4-1.913.675.675,0,0,0-.655-.82Z" transform="translate(-2.113 -6.506)" fill="#0e58d6"/>
    <path id="패스_3298" data-name="패스 3298" d="M23.052,19.21c-.794-1.047-2.357-1.66-2.357-6.348,0-4.811-2.125-6.745-4.1-7.209-.186-.046-.32-.108-.32-.3V5.2A1.265,1.265,0,0,0,15.033,3.93H15A1.265,1.265,0,0,0,13.765,5.2v.15c0,.191-.134.258-.32.3-1.985.469-4.1,2.4-4.1,7.209,0,4.687-1.562,5.3-2.357,6.348a1.024,1.024,0,0,0,.82,1.64H22.247A1.024,1.024,0,0,0,23.052,19.21Zm-2.011.3H9.015a.226.226,0,0,1-.17-.376A6.247,6.247,0,0,0,9.928,17.41a11.686,11.686,0,0,0,.737-4.548,7.908,7.908,0,0,1,1.078-4.476,3.309,3.309,0,0,1,2-1.423,1.807,1.807,0,0,0,.959-.541.408.408,0,0,1,.614-.01,1.868,1.868,0,0,0,.969.552,3.309,3.309,0,0,1,2,1.423,7.908,7.908,0,0,1,1.078,4.476,11.686,11.686,0,0,0,.737,4.548A6.319,6.319,0,0,0,21.2,19.158.213.213,0,0,1,21.041,19.509Z" transform="translate(0 0)" fill="#0e58d6"/>
  </g>
</svg>
